<?xml version="1.0" encoding="UTF-8" standalone="no"?>
<!-- Created with Inkscape (http://www.inkscape.org/) -->

<svg
   xmlns:dc="http://purl.org/dc/elements/1.1/"
   xmlns:cc="http://creativecommons.org/ns#"
   xmlns:rdf="http://www.w3.org/1999/02/22-rdf-syntax-ns#"
   xmlns:svg="http://www.w3.org/2000/svg"
   xmlns="http://www.w3.org/2000/svg"
   xmlns:sodipodi="http://sodipodi.sourceforge.net/DTD/sodipodi-0.dtd"
   xmlns:inkscape="http://www.inkscape.org/namespaces/inkscape"
   width="22"
   height="22"
   id="svg2"
   version="1.1"
   inkscape:version="0.48.4 r9939"
   sodipodi:docname="scudcloud_systray.svg">
  <defs
     id="defs4" />
  <sodipodi:namedview
     id="base"
     pagecolor="#ffffff"
     bordercolor="#666666"
     borderopacity="1.0"
     inkscape:pageopacity="0.0"
     inkscape:pageshadow="2"
     inkscape:zoom="16"
     inkscape:cx="5.314599"
     inkscape:cy="8.0615887"
     inkscape:document-units="px"
     inkscape:current-layer="layer1"
     showgrid="false"
     inkscape:window-width="1867"
     inkscape:window-height="1056"
     inkscape:window-x="1973"
     inkscape:window-y="24"
     inkscape:window-maximized="1" />
  <metadata
     id="metadata7">
    <rdf:RDF>
      <cc:Work
         rdf:about="">
        <dc:format>image/svg+xml</dc:format>
        <dc:type
           rdf:resource="http://purl.org/dc/dcmitype/StillImage" />
        <dc:title></dc:title>
      </cc:Work>
    </rdf:RDF>
  </metadata>
  <g
     inkscape:label="Layer 1"
     inkscape:groupmode="layer"
     id="layer1"
     transform="translate(0,-1030.3622)">
    <path
       style="fill:#dfd8c8;fill-opacity:1"
       d="m 4.3364208,1050.9065 c -0.1593387,-0.2577 0.044047,-1.0655 0.4328983,-1.7192 0.1744699,-0.2933 0.3441811,-0.8058 0.377135,-1.1388 0.059591,-0.6022 0.054592,-0.6066 -0.917788,-0.8094 -1.630443,-0.3401 -2.7298647,-1.1542 -3.49094793,-2.5848 -0.50430774,-0.948 -0.47089431,-3.7362 0.0565996,-4.7229 0.47693273,-0.8922 1.54300283,-1.8762 2.36906583,-2.1867 1.3905848,-0.5228 1.4208119,-0.5439 1.4208119,-0.9904 0,-0.9483 0.7538553,-2.4764 1.6771696,-3.3996 1.1484267,-1.1484 2.458959,-1.6776 4.1512859,-1.6762 2.797989,0 4.643708,1.2147 5.659925,3.7179 0.390473,0.9618 0.427261,0.9954 1.215479,1.1109 2.536143,0.3715 4.174465,2.2811 4.320577,5.0361 0.0975,1.8385 -0.348663,3.1169 -1.484077,4.2524 -1.337129,1.337 -2.11584,1.5245 -6.347714,1.5276 -1.976185,0 -3.674905,0.062 -3.774934,0.1334 -0.1000276,0.072 -0.3261749,0.3572 -0.5025471,0.6341 -0.5758236,0.9041 -1.5449378,1.8668 -2.3601888,2.3446 -0.8678044,0.5086 -2.5996814,0.7997 -2.8027499,0.471 z m 3.0939807,-2.5485 c 0.3094391,-0.3094 0.7365785,-0.9294 0.949199,-1.3777 l 0.3865829,-0.815 4.1752056,-0.089 4.175204,-0.089 0.977705,-0.5499 c 1.702284,-0.9573 2.569107,-2.8909 2.057699,-4.5902 -0.52784,-1.7539 -1.923289,-2.8749 -3.847624,-3.0909 l -1.104543,-0.1239 -0.205954,-0.8125 c -0.487644,-1.9238 -1.867722,-3.3207 -3.660617,-3.7052 -0.999656,-0.2144 -1.7399725,-0.1106 -2.7493621,0.3855 -1.5143104,0.744 -2.3393192,1.9375 -2.6658689,3.856 l -0.1950485,1.1461 -0.7915979,0.2029 c -1.5152503,0.3885 -2.3043239,0.9841 -2.9352357,2.2158 -1.11453056,2.1759 0.72616,4.9774 3.2702591,4.9774 1.1854493,0 1.3428538,0.2275 1.2317705,1.78 -0.1032797,1.4435 0.053721,1.5579 0.932226,0.6793 z m 5.6900825,-4.1267 c -0.248989,-0.249 -0.227734,-0.7424 0.04085,-0.948 0.122213,-0.093 1.013431,-0.1634 1.980485,-0.1551 1.470814,0.013 1.790361,0.066 1.954501,0.3262 0.143114,0.2269 0.143117,0.3952 3e-6,0.6222 -0.164855,0.2613 -0.483786,0.313 -1.995349,0.3235 -1.003995,0.01 -1.879284,-0.068 -1.980489,-0.1688 z"
       id="path4229"
       inkscape:connector-curvature="0" />
  </g>
</svg>
